PathFileType	4	(X/Y/Z)	C:\Users\Basilio\Documents\Thesis Gigler\squatting_fais\c3dfiles\076\SLS_back_pre3\markers_experimental.trc
DataRate	CameraRate	NumFrames	NumMarkers	Units	OrigDataRate	OrigDataStartFrame	OrigNumFrames
200.000000	200.000000	4	61	mm	200.000000	221	1772
Frame#	Time	FHD			LBHD			RBHD			C7			T10			CLAV			LSHO			LUUPA			LMUPA			LDUPA			LLEP			LMEP			LRAD			LUL			LRFIN			RSHO			RUPA1			RMUPA			RDUPA			RLEP			RMEP			RRAD			RUL			RUFIN			LASI			RASI			USACR			LSACR			RSACR			LTHI1			LTHI2			LTHI3			LTHI4			LLFC			LMFC			LTIB1			LTIB2			LTIB3			LTIB4			LLMAL			LMMAL			LHEE			LMT1			LMT2			LMT5			RTHI			RTHI2			RTHI3			RTHI4			RLFC			RMFC			RTIB1			RTIB2			RTIB3			RTIB4			RLMAL			RMMAL			RHEE			RMT1			RMT2			RMT5			
		X1	Y1	Z1	X2	Y2	Z2	X3	Y3	Z3	X4	Y4	Z4	X5	Y5	Z5	X6	Y6	Z6	X7	Y7	Z7	X8	Y8	Z8	X9	Y9	Z9	X10	Y10	Z10	X11	Y11	Z11	X12	Y12	Z12	X13	Y13	Z13	X14	Y14	Z14	X15	Y15	Z15	X16	Y16	Z16	X17	Y17	Z17	X18	Y18	Z18	X19	Y19	Z19	X20	Y20	Z20	X21	Y21	Z21	X22	Y22	Z22	X23	Y23	Z23	X24	Y24	Z24	X25	Y25	Z25	X26	Y26	Z26	X27	Y27	Z27	X28	Y28	Z28	X29	Y29	Z29	X30	Y30	Z30	X31	Y31	Z31	X32	Y32	Z32	X33	Y33	Z33	X34	Y34	Z34	X35	Y35	Z35	X36	Y36	Z36	X37	Y37	Z37	X38	Y38	Z38	X39	Y39	Z39	X40	Y40	Z40	X41	Y41	Z41	X42	Y42	Z42	X43	Y43	Z43	X44	Y44	Z44	X45	Y45	Z45	X46	Y46	Z46	X47	Y47	Z47	X48	Y48	Z48	X49	Y49	Z49	X50	Y50	Z50	X51	Y51	Z51	X52	Y52	Z52	X53	Y53	Z53	X54	Y54	Z54	X55	Y55	Z55	X56	Y56	Z56	X57	Y57	Z57	X58	Y58	Z58	X59	Y59	Z59	X60	Y60	Z60	X61	Y61	Z61	

222	1.105	-176.3671112060547	1641.06494140625	-894.9549560546877	-299.2476501464844	1566.938354492188	-1009.175659179688	-307.2443542480469	1573.026245117188	-858.2501220703127	-354.5274353027344	1450.131225585938	-930.5979003906252	-381.7259521484376	1130.626831054688	-930.4433593750002	-221.8653869628907	1371.27783203125	-927.6447753906252	-299.6983337402344	1403.76025390625	-1098.516723632813	-320.1156921386719	1259.009887695313	-1232.680908203125	-301.6016540527344	1214.61572265625	-1218.987670898438	-328.8896789550782	1202.625244140625	-1272.524536132813	-340.6718139648438	1153.598754882813	-1300.619262695313	-418.8717346191407	1137.934448242188	-1259.421020507813	-311.1208496093751	1007.257080078125	-1111.99658203125	-267.9188842773438	974.011169433594	-1146.38671875	-263.6669616699219	1031.59912109375	-1093.871948242188	-300.9568786621094	1394.755615234375	-765.5761108398439	-360.4352416992188	1267.7548828125	-626.9227905273439	-328.2339172363282	1229.495849609375	-620.4320678710939	-373.7608947753907	1212.059448242188	-584.4509277343751	-368.4358520507813	1142.746826171875	-558.9518432617189	-435.8078918457032	1124.844604492188	-616.6639404296876	-314.8652648925782	1011.398498535156	-753.3644409179689	-263.2909851074219	1035.721313476563	-760.2083129882814	-270.3960266113282	980.390563964844	-712.9259643554689	-224.392074584961	946.1655883789065	-1041.256103515625	-216.5642242431641	939.8501586914065	-828.2374267578127	-385.4482421875001	1025.5517578125	-925.618347167969	-394.6289978027345	997.4756469726565	-954.367126464844	-391.7152404785157	995.1128540039065	-897.8818359375002	-317.9594421386719	797.944274902344	-1105.695190429688	-298.6379394531251	715.4058227539064	-1101.848022460938	-249.8537750244141	713.4286499023439	-1090.868530273438	-333.6282958984376	667.4324340820314	-1088.466796875	-350.7730407714844	507.3943786621095	-1062.501098632813	-315.0817260742188	498.6540832519532	-948.5677490234377	-319.7084045410157	362.3792419433594	-997.812683105469	-344.3741149902344	311.1342163085938	-1065.81591796875	-315.2922973632813	313.3222656250001	-1030.2021484375	-328.1970520019532	234.7516021728516	-999.162536621094	-386.0552368164064	109.9910964965821	-1052.872436523438	-356.3585205078126	120.602653503418	-973.830749511719	-442.9541320800782	97.53803253173831	-1006.821105957031	-240.7650756835938	53.45653533935548	-993.619567871094	-235.7593078613282	50.35247039794923	-1032.513549804688	-260.6075439453126	44.3437614440918	-1082.419189453125	-324.3740234375001	698.5098876953126	-766.8872070312501	-290.4214477539063	640.5767211914064	-760.3359985351564	-255.8176574707032	641.1850585937501	-764.2399291992189	-318.7054748535157	564.8204956054689	-777.4667968750002	-324.3588256835938	504.0081787109376	-783.452331542969	-280.9455261230469	494.8372802734376	-894.8054809570315	-282.9274597167969	372.0386962890626	-794.8086547851565	-353.6121520996094	290.7661437988282	-778.511413574219	-306.5450134277344	288.7458190917969	-781.6198730468752	-287.1871032714844	242.6233215332032	-811.864440917969	-346.1562500000001	105.2128372192383	-786.8769531250002	-315.1689147949219	115.4134979248047	-866.8858642578127	-398.641815185547	87.6598358154297	-833.222595214844	-195.7030334472657	51.58104705810548	-839.161315917969	-194.4069061279297	52.51329421997072	-793.8247070312502	-227.076156616211	35.82619857788087	-742.4927368164064	
223	1.11	-176.4430236816407	1641.080078125	-895.281921386719	-299.8909912109376	1566.610107421875	-1009.282409667969	-307.1932373046876	1573.0029296875	-858.3540649414065	-354.6502685546876	1450.124755859375	-930.791931152344	-381.9437561035157	1130.594970703125	-930.6528320312502	-221.9841766357422	1371.2958984375	-927.9483642578127	-299.8381042480469	1403.77685546875	-1098.774291992188	-320.1988220214844	1258.976196289063	-1232.791625976563	-301.5860900878907	1214.646118164063	-1219.207275390625	-329.0194702148438	1202.587768554688	-1272.758422851563	-342.0049438476563	1153.8955078125	-1301.381591796875	-418.9903869628907	1137.9384765625	-1259.692504882813	-311.2648315429688	1007.301513671875	-1112.234985351563	-268.0368957519532	974.0948486328127	-1146.709594726563	-263.6945800781251	1031.59765625	-1094.121459960938	-301.0054016113282	1394.776000976563	-765.7272338867189	-360.4046020507813	1267.807739257813	-627.1296997070314	-328.2452087402344	1229.52734375	-620.6853027343751	-373.7931823730469	1212.095092773438	-584.6332397460939	-368.4279479980469	1142.740478515625	-559.1501464843751	-435.7330017089845	1124.99365234375	-616.8133544921876	-315.0001831054688	1011.397277832031	-753.5197143554689	-263.4340515136719	1035.737182617188	-760.4960327148439	-270.5018615722657	980.381286621094	-713.2062988281251	-224.5245819091797	946.2436523437502	-1041.4619140625	-216.6671905517579	939.9044189453127	-828.458190917969	-385.6236267089845	1025.453002929688	-925.891296386719	-394.7152099609376	997.4624023437502	-954.5754394531252	-391.8282165527345	995.0280761718752	-898.1052856445315	-317.9680175781251	797.9443359375002	-1105.942016601563	-298.7031250000001	715.3522338867189	-1102.0322265625	-249.9330596923829	713.4417724609376	-1091.091064453125	-333.7546691894532	667.4995117187501	-1088.644165039063	-350.7425231933594	507.3436889648439	-1062.636108398438	-315.0068969726563	498.7312011718751	-948.7130126953127	-319.6945190429688	362.3968505859376	-997.8535156250002	-344.3749694824219	311.1413879394532	-1065.89208984375	-315.2247009277344	313.3495483398438	-1030.223266601563	-328.1616516113282	234.7127075195313	-999.226257324219	-385.9447631835939	109.9578552246094	-1052.848999023438	-356.3865661621094	120.6176376342774	-973.8369140625002	-442.9369506835939	97.5059509277344	-1006.825439453125	-240.7652893066407	53.45708084106447	-993.6165161132815	-235.7355346679688	50.38595581054689	-1032.44921875	-260.6466979980469	44.3681983947754	-1082.429809570313	-324.4134216308594	698.5391845703126	-767.0262451171876	-290.4503479003907	640.5939941406251	-760.4855346679689	-255.9023590087891	641.1441650390626	-764.4295654296876	-318.7525634765626	564.8473510742189	-777.5848388671877	-324.4094238281251	504.0181884765626	-783.5554199218752	-281.0111083984376	494.8476867675782	-894.998718261719	-282.9284362792969	372.0220642089844	-794.8979492187502	-353.5922851562501	290.8511962890626	-778.615417480469	-306.5663146972657	288.7763061523438	-781.685729980469	-287.2553710937501	242.6505126953126	-811.9545898437502	-346.1667175292969	105.195671081543	-786.9028930664065	-315.2062988281251	115.4362869262696	-866.9524536132815	-398.6427307128907	87.61865234375001	-833.2246093750002	-195.7058563232422	51.5902786254883	-839.0513305664065	-194.4013366699219	52.48290634155275	-793.8131103515627	-227.0754089355469	35.82353210449219	-742.5033569335939	
224	1.115	-176.5181732177735	1641.107666015625	-895.705505371094	-299.9963378906251	1566.805908203125	-1009.449523925781	-307.1963806152344	1573.010009765625	-858.5144042968752	-354.7487182617188	1450.147094726563	-930.8899536132815	-382.1114501953126	1130.518676757813	-930.914489746094	-222.1473693847657	1371.297241210938	-928.1699218750002	-300.0911560058594	1403.794799804688	-1099.108764648438	-320.4181823730469	1258.998657226563	-1233.011352539063	-301.7034301757813	1214.6337890625	-1219.456787109375	-329.2496948242188	1202.628173828125	-1272.953979492188	-342.1661682128907	1153.894287109375	-1301.54541015625	-419.2091064453126	1137.914306640625	-1259.798706054688	-311.4282226562501	1007.320129394531	-1112.446166992188	-268.0900878906251	974.1263427734377	-1146.839233398438	-265.5267028808594	1031.937744140625	-1094.350463867188	-301.0648193359376	1394.753295898438	-765.9465942382814	-360.3963317871094	1267.8369140625	-627.3024291992189	-328.2517700195313	1229.621337890625	-620.9089965820314	-373.7977600097657	1212.135498046875	-584.8676757812501	-368.4153747558594	1142.781127929688	-559.3460083007814	-435.8632202148439	1124.996215820313	-616.9909057617189	-315.1752014160157	1011.438781738281	-753.7632446289064	-263.5429687500001	1035.773681640625	-760.7353515625001	-270.5757141113282	980.4086914062502	-713.5006713867189	-224.5221710205079	946.2232666015627	-1041.6513671875	-216.8213348388672	939.9295654296877	-828.6431274414065	-385.8468322753907	1025.38671875	-926.154479980469	-394.8521423339845	997.4531860351565	-954.7449340820315	-391.9638061523439	995.047546386719	-898.3170166015627	-318.0664978027344	797.876403808594	-1106.0625	-298.6884460449219	715.3551635742189	-1102.292846679688	-249.9364013671876	713.4495239257814	-1091.333740234375	-333.7094726562501	667.4215087890626	-1088.818481445313	-350.6288146972657	507.3596801757814	-1062.79541015625	-314.9810485839844	498.680633544922	-948.7618408203127	-319.7237548828126	362.3880310058594	-997.9624023437502	-344.3837280273438	310.9892578125001	-1065.932006835938	-315.2250976562501	313.3146362304688	-1030.29638671875	-328.1577148437501	234.6998291015626	-999.2747802734377	-385.8708801269532	109.942253112793	-1052.846313476563	-356.3718261718751	120.5895004272461	-973.8275146484377	-442.9356689453126	97.50784301757815	-1006.817077636719	-240.7611694335938	53.47389602661134	-993.6152954101565	-235.7881164550782	50.32748031616212	-1032.468505859375	-260.5952758789063	44.41199111938477	-1082.398559570313	-324.4520568847657	698.5203857421876	-767.1781616210939	-290.4747924804688	640.6665649414064	-760.6412353515626	-256.0103759765626	641.0521240234376	-764.6756591796876	-318.7387695312501	564.8413696289064	-777.7601318359377	-324.3627624511719	504.0308532714845	-783.6977539062502	-281.0929260253907	494.8356323242189	-895.0590820312502	-282.9576416015626	372.0426330566407	-794.9399414062502	-353.5915222167969	290.9049377441407	-778.7037353515627	-306.5027465820313	288.9232482910157	-781.7932128906252	-287.2254638671876	242.6363372802735	-812.0064086914065	-346.1810607910157	105.1914596557617	-786.9240722656252	-315.2855529785157	115.3600540161133	-866.9492797851565	-398.7013549804689	87.63834381103517	-833.2295532226565	-195.7091064453126	51.59218215942384	-839.0642089843752	-194.4033966064454	52.47777938842775	-793.8100585937502	-227.0539093017579	35.86935424804688	-742.4917602539064	
225	1.12	-176.5676574707032	1641.079345703125	-896.0149536132815	-300.4846191406251	1566.663452148438	-1009.511413574219	-307.1564025878907	1572.958740234375	-858.5886230468752	-354.8625793457032	1450.15576171875	-931.118347167969	-382.3105468750001	1130.633544921875	-931.1541137695315	-222.2545318603516	1371.260375976563	-928.4486083984377	-300.1915893554688	1403.7646484375	-1099.340576171875	-320.4916992187501	1259.022216796875	-1233.180297851563	-301.8870544433594	1214.6884765625	-1219.69921875	-329.4627075195313	1202.70556640625	-1273.17578125	-342.3795166015626	1153.93603515625	-1301.777709960938	-419.331024169922	1138.03466796875	-1259.949462890625	-311.5917358398438	1007.390563964844	-1112.721435546875	-268.1979064941407	974.1841430664065	-1147.1416015625	-265.6461486816407	1031.941162109375	-1094.54736328125	-301.1175537109376	1394.762939453125	-766.1940917968751	-360.3766479492188	1267.826416015625	-627.5211181640626	-328.2806701660157	1229.654052734375	-621.1764526367189	-373.8087463378907	1212.166870117188	-585.0632324218751	-368.3981323242188	1142.8544921875	-559.5665283203126	-435.8592834472657	1125.051025390625	-617.1807250976564	-315.2587890625001	1011.417358398438	-753.9488525390626	-263.6613159179688	1035.752197265625	-761.0333862304689	-270.7852478027344	980.2959594726565	-713.9119262695314	-224.6406860351563	946.2327880859377	-1041.899291992188	-217.0496063232422	940.0529785156252	-828.8567504882815	-386.0123901367189	1025.32666015625	-926.401062011719	-394.9234924316407	997.4088134765627	-954.9680786132815	-392.1190185546876	995.0169067382815	-898.5708007812502	-318.0659179687501	797.8738403320315	-1106.395874023438	-298.6478576660157	715.3936157226564	-1102.56494140625	-250.0232238769532	713.4621582031251	-1091.62109375	-333.7868041992188	667.4162597656251	-1089.017211914063	-350.5543518066407	507.3454895019532	-1062.917358398438	-314.8864440917969	498.7313537597657	-948.9709472656252	-319.6668395996094	362.2563781738282	-998.0646972656252	-344.3277587890626	310.9300231933594	-1066.004638671875	-315.1702880859376	313.3425903320313	-1030.24755859375	-328.1524047851563	234.7044982910157	-999.2618408203127	-385.9647827148439	109.9276580810547	-1052.856323242188	-356.3408813476563	120.570297241211	-973.8210449218752	-442.9498901367189	97.48269653320315	-1006.83642578125	-240.7631835937501	53.46561813354494	-993.6157836914065	-235.8199615478516	50.38721084594728	-1032.48779296875	-260.6595764160157	44.35877990722657	-1082.409545898438	-324.4985656738282	698.5239868164064	-767.3096923828126	-290.4859619140626	640.6976318359376	-760.7611694335939	-256.1171875000001	641.1361083984376	-764.8251953125001	-318.7652587890626	564.8420410156251	-777.9028930664065	-324.4052124023438	504.0559997558595	-783.804870605469	-280.9738769531251	494.8286743164064	-895.2497558593752	-282.9338073730469	372.0090637207032	-795.0791015625002	-353.5710449218751	290.8837890625001	-778.7763671875002	-306.5279846191407	288.9192810058594	-781.8491210937502	-287.2414245605469	242.6414031982422	-812.0615234375002	-346.1650390625001	105.1976394653321	-786.901062011719	-315.2491455078126	115.3456726074219	-866.9562988281252	-398.6875915527345	87.65480804443361	-833.2214355468752	-195.7381134033204	51.588924407959	-839.0505371093752	-194.5169525146485	52.57522201538087	-793.8250122070315	-227.2459869384766	35.80077743530274	-742.5787963867189	
